version = 1
nColumns = 19
nRows = 20
inDegrees = yes
endheader 
time	r_ground_force_vx	r_ground_force_vy	r_ground_force_vz	r_ground_force_px	r_ground_force_py	r_ground_force_pz	l_ground_force_vx	l_ground_force_vy	l_ground_force_vz	l_ground_force_px	l_ground_force_py	l_ground_force_pz	r_ground_torque_x	r_ground_torque_y	r_ground_torque_z	l_ground_torque_x	l_ground_torque_y	l_ground_torque_z	
          0.00000000	       -160.09860798	        356.62872023	         26.53095129	          0.18432704	          0.00000000	          0.03647803	          0.00000000	          0.00000000	          0.00000000	          0.00000000	          0.00000000	          0.00000000	          0.00000000	         -3.41496046	          0.00000000	          0.00000000	          0.00000000	          0.00000000	
          0.00087076	       -160.09860798	        356.62872023	         26.53095129	          0.18432704	          0.00000000	          0.03647803	          0.00000000	          0.00000000	          0.00000000	          0.00000000	          0.00000000	          0.00000000	          0.00000000	         -3.41496046	          0.00000000	          0.00000000	          0.00000000	          0.00000000	
          0.00362200	        -77.93541156	        443.96558858	         11.49336135	          0.16552290	          0.00000000	          0.03929898	          0.00000000	          0.00000000	          0.00000000	          0.00000000	          0.00000000	          0.00000000	          0.00000000	         -4.01114906	          0.00000000	          0.00000000	          0.00000000	          0.00000000	
          0.00561594	        -75.11969878	        550.73580984	          7.24687493	          0.15960858	          0.00000000	          0.04054455	          0.00000000	          0.00000000	          0.00000000	          0.00000000	          0.00000000	          0.00000000	          0.00000000	         -3.83827604	          0.00000000	          0.00000000	          0.00000000	          0.00000000	
          0.00648670	        -73.84063456	        600.50733419	          7.02641173	          0.15779567	          0.00000000	          0.04103114	          0.00000000	          0.00000000	          0.00000000	          0.00000000	          0.00000000	          0.00000000	          0.00000000	         -3.42771492	          0.00000000	          0.00000000	          0.00000000	          0.00000000	
          0.00923794	        -77.11404763	        747.05235229	          6.17792468	          0.15271725	          0.00000000	          0.04252312	          0.00000000	          0.00000000	          0.00000000	          0.00000000	          0.00000000	          0.00000000	          0.00000000	         -2.03182694	          0.00000000	          0.00000000	          0.00000000	          0.00000000	
          0.01123189	        -78.71248600	        835.85636389	          4.44228539	          0.14964804	          0.00000000	          0.04348270	          0.00000000	          0.00000000	          0.00000000	          0.00000000	          0.00000000	          0.00000000	          0.00000000	         -1.11232201	          0.00000000	          0.00000000	          0.00000000	          0.00000000	
          0.01210264	        -77.19934750	        868.88664059	          3.23199229	          0.14849437	          0.00000000	          0.04385087	          0.00000000	          0.00000000	          0.00000000	          0.00000000	          0.00000000	          0.00000000	          0.00000000	         -0.78299213	          0.00000000	          0.00000000	          0.00000000	          0.00000000	
          0.01485388	        -72.30432273	        956.90962697	         -1.09783044	          0.14653297	          0.00000000	          0.04466760	          0.00000000	          0.00000000	          0.00000000	          0.00000000	          0.00000000	          0.00000000	          0.00000000	         -0.09635612	          0.00000000	          0.00000000	          0.00000000	          0.00000000	
          0.01684783	        -71.06330733	       1004.78853909	         -3.51842542	          0.14638475	          0.00000000	          0.04500069	          0.00000000	          0.00000000	          0.00000000	          0.00000000	          0.00000000	          0.00000000	          0.00000000	          0.17138482	          0.00000000	          0.00000000	          0.00000000	          0.00000000	
          0.01771859	        -71.22368345	       1021.77950818	         -4.21680925	          0.14658674	          0.00000000	          0.04509437	          0.00000000	          0.00000000	          0.00000000	          0.00000000	          0.00000000	          0.00000000	          0.00000000	          0.25506791	          0.00000000	          0.00000000	          0.00000000	          0.00000000	
          0.02046983	        -73.48661328	       1062.16395427	         -6.47068556	          0.14812852	          0.00000000	          0.04521443	          0.00000000	          0.00000000	          0.00000000	          0.00000000	          0.00000000	          0.00000000	          0.00000000	          0.26759892	          0.00000000	          0.00000000	          0.00000000	          0.00000000	
          0.02246377	        -76.67537900	       1081.00087921	         -7.93980481	          0.14987340	          0.00000000	          0.04518189	          0.00000000	          0.00000000	          0.00000000	          0.00000000	          0.00000000	          0.00000000	          0.00000000	          0.10018474	          0.00000000	          0.00000000	          0.00000000	          0.00000000	
          0.02333453	        -78.35776886	       1087.08047300	         -8.45629070	          0.15074024	          0.00000000	          0.04514821	          0.00000000	          0.00000000	          0.00000000	          0.00000000	          0.00000000	          0.00000000	          0.00000000	          0.00416693	          0.00000000	          0.00000000	          0.00000000	          0.00000000	
          0.02608577	        -83.22344127	       1099.11192492	         -9.36516651	          0.15366814	          0.00000000	          0.04500499	          0.00000000	          0.00000000	          0.00000000	          0.00000000	          0.00000000	          0.00000000	          0.00000000	         -0.30295512	          0.00000000	          0.00000000	          0.00000000	          0.00000000	
          0.02807972	        -86.01996851	       1103.07364070	         -9.62258642	          0.15588967	          0.00000000	          0.04488242	          0.00000000	          0.00000000	          0.00000000	          0.00000000	          0.00000000	          0.00000000	          0.00000000	         -0.52862937	          0.00000000	          0.00000000	          0.00000000	          0.00000000	
          0.02895047	        -86.96218311	       1104.06140948	         -9.69561336	          0.15686731	          0.00000000	          0.04482776	          0.00000000	          0.00000000	          0.00000000	          0.00000000	          0.00000000	          0.00000000	          0.00000000	         -0.62672492	          0.00000000	          0.00000000	          0.00000000	          0.00000000	
          0.03170171	        -88.45001239	       1105.28224361	         -9.87307569	          0.15995948	          0.00000000	          0.04465842	          0.00000000	          0.00000000	          0.00000000	          0.00000000	          0.00000000	          0.00000000	          0.00000000	         -0.92792449	          0.00000000	          0.00000000	          0.00000000	          0.00000000	
          0.03369566	        -88.35240851	       1104.97829446	        -10.01794278	          0.16219481	          0.00000000	          0.04454256	          0.00000000	          0.00000000	          0.00000000	          0.00000000	          0.00000000	          0.00000000	          0.00000000	         -1.13794860	          0.00000000	          0.00000000	          0.00000000	          0.00000000	
          0.03456642	        -88.06215641	       1104.64369595	        -10.10093511	          0.16316771	          0.00000000	          0.04449452	          0.00000000	          0.00000000	          0.00000000	          0.00000000	          0.00000000	          0.00000000	          0.00000000	         -1.22804929	          0.00000000	          0.00000000	          0.00000000	          0.00000000	
